<svg xmlns="http://www.w3.org/2000/svg" xmlns:oryx="http://oryx-editor.org" id="_9BDFDC1F-A5E0-435C-B25D-774FD7B4AFD0" width="432" height="265" xmlns:xlink="http://www.w3.org/1999/xlink" xmlns:svg="http://www.w3.org/2000/svg"><defs><marker id="_34F52298-DCC9-48D9-A71A-31B2E109AEE9start" refX="1" refY="5" markerUnits="userSpaceOnUse" markerWidth="17" markerHeight="11" orient="auto" fill="#000000" stroke="#000000"> 	  		<path id="_34F52298-DCC9-48D9-A71A-31B2E109AEE9conditional" d="M 0 5 L 8 0 L 16 5 L 8 10 L 0 5" fill="white" stroke="#000000" stroke-width="1" display="none"/> 			<path id="_34F52298-DCC9-48D9-A71A-31B2E109AEE9default" d="M 5 0 L 11 10" fill="white" stroke="#000000" stroke-width="1" display="none"/> 	  	</marker><marker id="_34F52298-DCC9-48D9-A71A-31B2E109AEE9end" refX="15" refY="6" markerUnits="userSpaceOnUse" markerWidth="15" markerHeight="12" orient="auto" fill="#000000" stroke="#000000"> 	  		<path id="_34F52298-DCC9-48D9-A71A-31B2E109AEE9frame2" d="M 0 1 L 15 6 L 0 11z" fill="#000000" stroke="#000000" stroke-linejoin="round" stroke-width="2"/> 	  	</marker><marker id="_0DCE5732-5A83-46EC-AB25-CF2FE88AF1D6start" refX="1" refY="5" markerUnits="userSpaceOnUse" markerWidth="17" markerHeight="11" orient="auto" fill="#000000" stroke="#000000"> 	  		<path id="_0DCE5732-5A83-46EC-AB25-CF2FE88AF1D6conditional" d="M 0 5 L 8 0 L 16 5 L 8 10 L 0 5" fill="white" stroke="#000000" stroke-width="1" display="none"/> 			<path id="_0DCE5732-5A83-46EC-AB25-CF2FE88AF1D6default" d="M 5 0 L 11 10" fill="white" stroke="#000000" stroke-width="1" display="none"/> 	  	</marker><marker id="_0DCE5732-5A83-46EC-AB25-CF2FE88AF1D6end" refX="15" refY="6" markerUnits="userSpaceOnUse" markerWidth="15" markerHeight="12" orient="auto" fill="#000000" stroke="#000000"> 	  		<path id="_0DCE5732-5A83-46EC-AB25-CF2FE88AF1D6frame2" d="M 0 1 L 15 6 L 0 11z" fill="#000000" stroke="#000000" stroke-linejoin="round" stroke-width="2"/> 	  	</marker></defs><g stroke="none" font-family="Verdana, sans-serif" font-size-adjust="none" font-style="normal" font-variant="normal" font-weight="normal" line-heigth="normal" font-size="12"><g class="stencils" transform="translate(15, 16)"><g class="me"/><g class="children"><g id="_5AFAFF33-84F7-4B67-99FF-30ACFDF76AAB" bpmn2nodeid="_753134C1-237E-4355-A87D-E547AB7C6EED"><g class="stencils" transform="translate(120, 165)"><g class="me"><g pointer-events="fill" id="_5AFAFF33-84F7-4B67-99FF-30ACFDF76AAB">        <defs id="_5AFAFF33-84F7-4B67-99FF-30ACFDF76AAB__5AFAFF33-84F7-4B67-99FF-30ACFDF76AAB_5"> 		<radialGradient id="_5AFAFF33-84F7-4B67-99FF-30ACFDF76AABbackground" cx="10%" cy="10%" r="100%" fx="10%" fy="10%"> 			<stop offset="0%" stop-color="#ffffff" stop-opacity="1" id="_5AFAFF33-84F7-4B67-99FF-30ACFDF76AAB__5AFAFF33-84F7-4B67-99FF-30ACFDF76AAB_6"/> 			<stop id="_5AFAFF33-84F7-4B67-99FF-30ACFDF76AABfill_el" offset="100%" stop-color="#9acd32" stop-opacity="1"/> 		</radialGradient> 	</defs> 	     <circle id="_5AFAFF33-84F7-4B67-99FF-30ACFDF76AABbg_frame" cx="15" cy="15" r="15" stroke="#000000" fill="url(#_5AFAFF33-84F7-4B67-99FF-30ACFDF76AABbackground) white" stroke-width="1" style="stroke-dasharray: 5.5, 3"/>      <circle id="_5AFAFF33-84F7-4B67-99FF-30ACFDF76AABframe" cx="15" cy="15" r="15" stroke="#000000" fill="none" stroke-width="1" display="inherit"/>  	<text font-size="11" id="_5AFAFF33-84F7-4B67-99FF-30ACFDF76AABtext_name" x="15" y="32" oryx:align="top center" stroke="black" stroke-width="0pt" letter-spacing="-0.01px" fill="#000000" text-anchor="middle" transform="rotate(0 15 32)" visibility="inherit" oryx:fontSize="11"/>   </g></g><g class="children" style="overflow:hidden"/><g class="edge"/></g><g class="controls"><g class="dockers"/><g class="magnets" transform="translate(120, 165)"><g pointer-events="all" display="none" transform="translate(7, 7)"><circle cx="8" cy="8" r="4" stroke="none" fill="red" fill-opacity="0.3"/></g></g></g></g><g id="_E4D4670B-BA3B-4478-AADC-08E80AADF012" bpmn2nodeid="_6E2A509C-3408-4918-B3E5-A884E078BF22"><g class="stencils" transform="translate(197, 140)"><g class="me"><g pointer-events="fill" oryx:minimumSize="50 40" id="_E4D4670B-BA3B-4478-AADC-08E80AADF012">   	<defs id="_E4D4670B-BA3B-4478-AADC-08E80AADF012__E4D4670B-BA3B-4478-AADC-08E80AADF012_17"> 		<radialGradient id="_E4D4670B-BA3B-4478-AADC-08E80AADF012background" cx="10%" cy="10%" r="100%" fx="10%" fy="10%"> 			<stop offset="0%" stop-color="#ffffff" stop-opacity="1" id="_E4D4670B-BA3B-4478-AADC-08E80AADF012__E4D4670B-BA3B-4478-AADC-08E80AADF012_18"/> 			<stop id="_E4D4670B-BA3B-4478-AADC-08E80AADF012fill_el" offset="100%" stop-color="#fafad2" stop-opacity="1"/> 		</radialGradient> 		<radialGradient id="_E4D4670B-BA3B-4478-AADC-08E80AADF012borderbackground" cx="10%" cy="10%" r="100%" fx="10%" fy="10%"> 			<stop offset="0%" stop-color="#ffffff" stop-opacity="1" id="_E4D4670B-BA3B-4478-AADC-08E80AADF012__E4D4670B-BA3B-4478-AADC-08E80AADF012_19"/> 			<stop id="_E4D4670B-BA3B-4478-AADC-08E80AADF012fill_border" offset="100%" stop-color="#000000" stop-opacity="1" stroke="#000000"/> 		</radialGradient> 	</defs> 	 	<rect id="_E4D4670B-BA3B-4478-AADC-08E80AADF012text_frame" oryx:anchors="bottom top right left" x="1" y="1" width="94" height="79" rx="10" ry="10" stroke="none" stroke-width="0" fill="none"/> 	<rect id="_E4D4670B-BA3B-4478-AADC-08E80AADF012bg_frame" oryx:resize="vertical horizontal" x="0" y="0" width="100" height="80" rx="10" ry="10" stroke="#000000" stroke-width="1" fill="url(#_E4D4670B-BA3B-4478-AADC-08E80AADF012background) #ffffcc"/> 		<text font-size="12" id="_E4D4670B-BA3B-4478-AADC-08E80AADF012text_name" x="50" y="40" oryx:align="middle center" oryx:fittoelem="text_frame" stroke="black" text-anchor="middle" stroke-width="0pt" letter-spacing="-0.01px" fill="#000000" transform="rotate(0 50 40)" visibility="inherit" oryx:fontSize="12"><tspan x="50" y="40" dy="5">Approve User</tspan></text>     <g id="_E4D4670B-BA3B-4478-AADC-08E80AADF012manualTask" transform="scale(0.7,0.7) translate(8,8)" display="none">     	<path oryx:anchors="top left" id="_E4D4670B-BA3B-4478-AADC-08E80AADF012frame" style="opacity:1;fill:none;fill-opacity:1;stroke-width:1" d="M0.5,3.751l4.083-3.25c0,0,11.166,0.083,12.083,0.083s-2.417,2.917-1.5,2.917     s11.667,0,12.584,0c1.166,1.708-0.168,3.167-0.834,3.667s0.875,1.917-1,4.417c-0.75,0.25,0.75,1.875-1.333,3.333     c-1.167,0.583,0.583,1.542-1.25,2.833c-1.167,0-20.833,0.083-20.833,0.083l-2-1.333V3.751z" stroke="#000000"/> 		<path id="_E4D4670B-BA3B-4478-AADC-08E80AADF012frame2" oryx:anchors="top left" style="opacity:1;fill:none;stroke-width:2" d="M 13.5 7 L 27 7" stroke="#000000"/> 		<path id="_E4D4670B-BA3B-4478-AADC-08E80AADF012frame3" oryx:anchors="top left" style="opacity:1;fill:none;stroke-width:2" d="M 13.5 11 L 26 11" stroke="#000000"/> 		<path id="_E4D4670B-BA3B-4478-AADC-08E80AADF012frame4" oryx:anchors="top left" style="opacity:1;fill:none;stroke-width:1.5" d="M 14 14.5 L 25 14.5" stroke="#000000"/> 		<path id="_E4D4670B-BA3B-4478-AADC-08E80AADF012frame5" oryx:anchors="top left" style="opacity:1;fill:none;stroke-width:1.5" d="M 8.2 3.1 L 15 3.1" stroke="#000000"/> 	</g> 	 	<g id="_E4D4670B-BA3B-4478-AADC-08E80AADF012businessRuleTask" transform="scale(0.7,0.7) translate(8,8)" display="none"> 		<rect id="_E4D4670B-BA3B-4478-AADC-08E80AADF012frame6" oryx:anchors="top left" x="0" y="0" width="22" height="4" style="opacity:1;fill:#B3B1B3;fill-opacity:1;" stroke="#000000"/> 		<rect id="_E4D4670B-BA3B-4478-AADC-08E80AADF012frame7" oryx:anchors="top left" x="0" y="4" style="opacity:1;fill:none;" width="22" height="12" stroke="#000000"/> 		<path id="_E4D4670B-BA3B-4478-AADC-08E80AADF012frame8" oryx:anchors="top left" style="opacity:1;fill:none;" d="M 0 10 L 22 10" stroke="#000000"/> 		<path id="_E4D4670B-BA3B-4478-AADC-08E80AADF012frame9" oryx:anchors="top left" style="opacity:1; fill:none;" d="M 7 4 L 7 16" stroke="#000000"/> 	</g> 	 	<g id="_E4D4670B-BA3B-4478-AADC-08E80AADF012scriptTask" transform="scale(0.7,0.7) translate(8,8)" display="none"> 		<path oryx:anchors="top left" id="_E4D4670B-BA3B-4478-AADC-08E80AADF012frame10" style="opacity:1;fill:none;" stroke="#000000" d="M6.402,0.5h14.5c0,0-5.833,2.833-5.833,5.583s4.417,6,4.417,9.167    s-4.167,5.083-4.167,5.083H0.235c0,0,5-2.667,5-5s-4.583-6.75-4.583-9.25S6.402,0.5,6.402,0.5z"/> 		<path oryx:anchors="top left" id="_E4D4670B-BA3B-4478-AADC-08E80AADF012frame11" style="opacity:1;fill:none;stroke-width:1.5" d="M 3.5 4.5 L 13.5 4.5" stroke="#000000"/> 		<path oryx:anchors="top left" id="_E4D4670B-BA3B-4478-AADC-08E80AADF012frame12" style="opacity:1;fill:none;stroke-width:1.5" d="M 3.8 8.5 L 13.8 8.5" stroke="#000000"/> 		<path oryx:anchors="top left" id="_E4D4670B-BA3B-4478-AADC-08E80AADF012frame13" style="opacity:1;fill:none;stroke-width:1.5" d="M 6.3 12.5 L 16.3 12.5" stroke="#000000"/> 		<path oryx:anchors="top left" id="_E4D4670B-BA3B-4478-AADC-08E80AADF012frame14" style="opacity:1;fill:none;stroke-width:1.5" d="M 6.5 16.5 L 16.5 16.5" stroke="#000000"/> 	</g> 	 	<g id="_E4D4670B-BA3B-4478-AADC-08E80AADF012userTask" transform="scale(0.7,0.7) translate(8,8)" display="inherit"> 		<path id="_E4D4670B-BA3B-4478-AADC-08E80AADF012frame15" oryx:anchors="top left" style="opacity:1;fill:#F4F6F7" stroke="#000000" d="M0.585,24.167h24.083v-7.833c0,0-2.333-3.917-7.083-5.167h-9.25    c-4.417,1.333-7.833,5.75-7.833,5.75L0.585,24.167z"/> 		<path id="_E4D4670B-BA3B-4478-AADC-08E80AADF012frame16" oryx:anchors="top left" style="opacity:1;fill:none" d="M 6 20 L 6 24" stroke="#000000"/> 		<path id="_E4D4670B-BA3B-4478-AADC-08E80AADF012frame17" oryx:anchors="top left" style="opacity:1;fill:none" d="M 20 20 L 20 24" stroke="#000000"/> 		<circle id="_E4D4670B-BA3B-4478-AADC-08E80AADF012frame18" oryx:anchors="top left" fill="black" cx="13.002" cy="5.916" r="5.417" stroke="#000000"/> 		<path id="_E4D4670B-BA3B-4478-AADC-08E80AADF012frame19" oryx:anchors="top left" style="opacity:1;fill:#F0EFF0;" stroke="#000000" d="M8.043,7.083c0,0,2.814-2.426,5.376-1.807s4.624-0.693,4.624-0.693    c0.25,1.688,0.042,3.75-1.458,5.584c0,0,1.083,0.75,1.083,1.5s0.125,1.875-1,3s-5.5,1.25-6.75,0S8.668,12.834,8.668,12    s0.583-1.25,1.25-1.917C8.835,9.5,7.419,7.708,8.043,7.083z"/> 	</g> 	 	<g id="_E4D4670B-BA3B-4478-AADC-08E80AADF012serviceTask" transform="scale(0.7,0.7) translate(8,8)" display="none"> 		<polygon oryx:anchors="top left" id="_E4D4670B-BA3B-4478-AADC-08E80AADF012frame20" style="opacity:1;fill:#ffffff" stroke="#000000" points="15.392,5.064 17.954,2.502 20.347,4.895 17.786,7.455     18.729,9.732 22.353,9.732 22.353,13.115 18.731,13.115 17.788,15.392 20.351,17.955 17.958,20.347 15.397,17.786 13.12,18.729     13.12,22.353 9.737,22.353 9.737,18.731 7.46,17.788 4.897,20.35 2.506,17.958 5.066,15.397 4.124,13.12 0.5,13.12 0.5,9.737     4.121,9.737 5.065,7.461 2.503,4.898 4.895,2.506 7.455,5.066 9.732,4.125 9.732,0.5 13.116,0.5 13.116,4.121 "/> 		<circle oryx:anchors="top left" id="_E4D4670B-BA3B-4478-AADC-08E80AADF012frame21" style="opacity:1;fill:none" stroke="#000000" cx="11.427" cy="11.426" r="3.714"/> 		<polygon oryx:anchors="top left" id="_E4D4670B-BA3B-4478-AADC-08E80AADF012frame22" style="opacity:1;fill:#ffffff" stroke="#000000" points="21.392,11.064 23.954,8.502 26.347,10.895 23.786,13.455     24.729,15.732 28.353,15.732 28.353,19.115 24.731,19.115 23.788,21.392 26.351,23.955 23.958,26.347 21.397,23.786 19.12,24.729     19.12,28.353 15.737,28.353 15.737,24.731 13.46,23.788 10.897,26.35 8.506,23.958 11.066,21.397 10.124,19.12 6.5,19.12     6.5,15.737 10.121,15.737 11.065,13.461 8.503,10.898 10.895,8.506 13.455,11.066 15.732,10.125 15.732,6.5 19.116,6.5     19.116,10.121 "/> 		<circle oryx:anchors="top left" id="_E4D4670B-BA3B-4478-AADC-08E80AADF012frame23" style="opacity:1;fill:none;" stroke="#000000" cx="17.427" cy="17.426" r="3.714"/> 	</g> 	 	<g id="_E4D4670B-BA3B-4478-AADC-08E80AADF012sendTask" display="none"> 		<path id="_E4D4670B-BA3B-4478-AADC-08E80AADF012stframe24" oryx:anchors="left top" stroke="#FFFFFF" fill="black" stroke-width="1" d="M8,11 L8,21 L24,21 L24,11 L16,17z"/> 		<path id="_E4D4670B-BA3B-4478-AADC-08E80AADF012stframe25" oryx:anchors="left top" stroke="#FFFFFF" fill="black" stroke-width="1" d="M7,10 L16,17 L25 10z"/> 	</g> 	 	<g id="_E4D4670B-BA3B-4478-AADC-08E80AADF012receiveTask" display="none"> 		<path id="_E4D4670B-BA3B-4478-AADC-08E80AADF012frame26" oryx:anchors="left top" stroke="#000000" fill="none" stroke-width="1" d="M8,11 L8,21 L24,21 L24,11z M8,11 L16,17 L24,11"/> 	</g> 	 	<g id="_E4D4670B-BA3B-4478-AADC-08E80AADF012none" display="inherit"/>  	<g id="_E4D4670B-BA3B-4478-AADC-08E80AADF012sequential" display="none">         <path oryx:anchors="bottom" fill="none" stroke="#000000" stroke-width="2" d="M46,76h10M46,72h10 M46,68h10" id="_E4D4670B-BA3B-4478-AADC-08E80AADF012__E4D4670B-BA3B-4478-AADC-08E80AADF012_20"/>     </g>   </g></g><g class="children" style="overflow:hidden"/><g class="edge"/></g><g class="controls"><g class="dockers"/><g class="magnets" transform="translate(197, 140)"><g pointer-events="all" display="none" transform="translate(-7, 12)"><circle cx="8" cy="8" r="4" stroke="none" fill="red" fill-opacity="0.3"/></g><g pointer-events="all" display="none" transform="translate(-7, 32)"><circle cx="8" cy="8" r="4" stroke="none" fill="red" fill-opacity="0.3"/></g><g pointer-events="all" display="none" transform="translate(-7, 52)"><circle cx="8" cy="8" r="4" stroke="none" fill="red" fill-opacity="0.3"/></g><g pointer-events="all" display="none" transform="translate(17, 71)"><circle cx="8" cy="8" r="4" stroke="none" fill="red" fill-opacity="0.3"/></g><g pointer-events="all" display="none" transform="translate(42, 71)"><circle cx="8" cy="8" r="4" stroke="none" fill="red" fill-opacity="0.3"/></g><g pointer-events="all" display="none" transform="translate(67, 71)"><circle cx="8" cy="8" r="4" stroke="none" fill="red" fill-opacity="0.3"/></g><g pointer-events="all" display="none" transform="translate(91, 12)"><circle cx="8" cy="8" r="4" stroke="none" fill="red" fill-opacity="0.3"/></g><g pointer-events="all" display="none" transform="translate(91, 32)"><circle cx="8" cy="8" r="4" stroke="none" fill="red" fill-opacity="0.3"/></g><g pointer-events="all" display="none" transform="translate(91, 52)"><circle cx="8" cy="8" r="4" stroke="none" fill="red" fill-opacity="0.3"/></g><g pointer-events="all" display="none" transform="translate(17, -7)"><circle cx="8" cy="8" r="4" stroke="none" fill="red" fill-opacity="0.3"/></g><g pointer-events="all" display="none" transform="translate(42, -7)"><circle cx="8" cy="8" r="4" stroke="none" fill="red" fill-opacity="0.3"/></g><g pointer-events="all" display="none" transform="translate(67, -7)"><circle cx="8" cy="8" r="4" stroke="none" fill="red" fill-opacity="0.3"/></g><g pointer-events="all" display="none" transform="translate(42, 32)"><circle cx="8" cy="8" r="4" stroke="none" fill="red" fill-opacity="0.3"/></g></g></g></g><g id="_F2DDB43B-5A4D-469F-875F-613B695C18B4" bpmn2nodeid="_242D9A96-E6DA-4F0F-86AD-CCB2B927CCE9"><g class="stencils" transform="translate(360, 166)"><g class="me"><g pointer-events="fill" id="_F2DDB43B-5A4D-469F-875F-613B695C18B4">      <defs id="_F2DDB43B-5A4D-469F-875F-613B695C18B4__F2DDB43B-5A4D-469F-875F-613B695C18B4_5"> 		<radialGradient id="_F2DDB43B-5A4D-469F-875F-613B695C18B4background" cx="10%" cy="10%" r="100%" fx="10%" fy="10%"> 			<stop offset="0%" stop-color="#ffffff" stop-opacity="1" id="_F2DDB43B-5A4D-469F-875F-613B695C18B4__F2DDB43B-5A4D-469F-875F-613B695C18B4_6"/> 			<stop id="_F2DDB43B-5A4D-469F-875F-613B695C18B4fill_el" offset="100%" stop-color="#ff6347" stop-opacity="1"/> 		</radialGradient> 	</defs> 	     <circle id="_F2DDB43B-5A4D-469F-875F-613B695C18B4bg_frame" cx="14" cy="14" r="14" stroke="#000000" fill="url(#_F2DDB43B-5A4D-469F-875F-613B695C18B4background) white" stroke-width="3"/> 	<text font-size="11" id="_F2DDB43B-5A4D-469F-875F-613B695C18B4text_name" x="14" y="30" oryx:align="top center" stroke="black" stroke-width="0pt" letter-spacing="-0.01px" fill="#000000" text-anchor="middle" transform="rotate(0 14 30)" visibility="inherit" oryx:fontSize="11"/>   </g></g><g class="children" style="overflow:hidden"/><g class="edge"/></g><g class="controls"><g class="dockers"/><g class="magnets" transform="translate(360, 166)"><g pointer-events="all" display="none" transform="translate(6, 6)"><circle cx="8" cy="8" r="4" stroke="none" fill="red" fill-opacity="0.3"/></g></g></g></g></g><g class="edge"><g id="_34F52298-DCC9-48D9-A71A-31B2E109AEE9" bpmn2nodeid="_27820769-F622-4DE0-9A45-449ED7C3C785"><g class="stencils"><g class="me"><g pointer-events="painted" bpmn2nodeid="_1F378421-794D-4857-9128-D97138481444"><path id="_34F52298-DCC9-48D9-A71A-31B2E109AEE9_1" d="M150 180L197 180 " stroke="#000000" fill="none" stroke-width="2" stroke-linecap="round" stroke-linejoin="round" marker-start="url(#_34F52298-DCC9-48D9-A71A-31B2E109AEE9start)" marker-end="url(#_34F52298-DCC9-48D9-A71A-31B2E109AEE9end)"/></g><text id="_34F52298-DCC9-48D9-A71A-31B2E109AEE9text_name" font-size="12" x="164" y="166" oryx:edgePosition="startTop" stroke-width="0pt" letter-spacing="-0.01px" fill="#000000" text-anchor="start" transform="rotate(360 150 180)" visibility="inherit" oryx:fontSize="12"/></g><g class="children" style="overflow:hidden"/><g class="edge"/></g><g class="controls"><g class="dockers"/><g class="magnets"/></g></g><g id="_0DCE5732-5A83-46EC-AB25-CF2FE88AF1D6" bpmn2nodeid="_8D1D2DAC-AE8F-47EE-8061-7D8912AEDC33"><g class="stencils"><g class="me"><g pointer-events="painted" bpmn2nodeid="_A5C796B7-7AB5-4F61-8906-D72262B99635"><path id="_0DCE5732-5A83-46EC-AB25-CF2FE88AF1D6_1" d="M297.609375 180L359.109375 180 " stroke="#000000" fill="none" stroke-width="2" stroke-linecap="round" stroke-linejoin="round" marker-start="url(#_0DCE5732-5A83-46EC-AB25-CF2FE88AF1D6start)" marker-end="url(#_0DCE5732-5A83-46EC-AB25-CF2FE88AF1D6end)"/></g><text id="_0DCE5732-5A83-46EC-AB25-CF2FE88AF1D6text_name" font-size="12" x="311.609375" y="166" oryx:edgePosition="startTop" stroke-width="0pt" letter-spacing="-0.01px" fill="#000000" text-anchor="start" transform="rotate(360 297.609375 180)" visibility="inherit" oryx:fontSize="12"/></g><g class="children" style="overflow:hidden"/><g class="edge"/></g><g class="controls"><g class="dockers"/><g class="magnets"/></g></g></g><text id="_77052BC7-58D3-4F8F-BA6D-2F045EFDBC60" style="stroke-width:1;fill:rgb(177,194,214);font-family:arial;font-weight:bold" font-size="12" onclick="ORYX.Plugins.CanvasTitle.openTextualAnalysis()" onmouseover="ORYX.Plugins.CanvasTitle.addToolTip('_77052BC7-58D3-4F8F-BA6D-2F045EFDBC60')" transform="translate(10, 20)">simple-process v.1.0 (src.simple-process)</text></g></g></svg>